<svg width="88" height="88" viewBox="0 0 88 88" fill="none" xmlns="http://www.w3.org/2000/svg">
<circle cx="44" cy="44" r="44" fill="white"/>
<path d="M24.375 43.5C24.375 51.5138 24.375 59.7709 27.1758 62.2604C29.9766 64.75 34.4844 64.75 43.5 64.75C52.5155 64.75 57.0235 64.75 59.8242 62.2604C62.625 59.7709 62.625 51.5138 62.625 43.5" stroke="#524CF2" stroke-width="2.5"/>
<path d="M49.1531 48.179L62.323 44.228C63.1962 43.9662 63.6329 43.8351 63.9561 43.5754C64.2383 43.3487 64.458 43.0533 64.594 42.7178C64.75 42.3336 64.75 41.8778 64.75 40.9664C64.75 37.3806 64.75 35.5877 64.0494 34.2194C63.4397 33.0289 62.4712 32.0603 61.2805 31.4506C59.9122 30.75 58.1194 30.75 54.5336 30.75H32.4663C28.8806 30.75 27.0877 30.75 25.7194 31.4506C24.5289 32.0603 23.5603 33.0289 22.9506 34.2194C22.25 35.5877 22.25 37.3806 22.25 40.9664C22.25 41.8778 22.25 42.3336 22.4059 42.7178C22.542 43.0533 22.7617 43.3487 23.044 43.5754C23.3672 43.8351 23.8038 43.9662 24.6769 44.228L37.8468 48.179" stroke="#524CF2" stroke-width="2.5"/>
<path d="M47.75 44.5625H39.25C38.6632 44.5625 38.1875 45.0383 38.1875 45.625V50.2182C38.1875 50.6525 38.452 51.0433 38.8554 51.2046L40.3431 51.7998C42.3697 52.6103 44.6303 52.6103 46.6569 51.7998L48.1446 51.2046C48.5479 51.0433 48.8125 50.6525 48.8125 50.2182V45.625C48.8125 45.0383 48.3367 44.5625 47.75 44.5625Z" stroke="#524CF2" stroke-width="2.5" stroke-linecap="round"/>
<path d="M37.4882 26.5C38.3633 24.024 40.7247 22.25 43.5004 22.25C46.2761 22.25 48.6376 24.024 49.5127 26.5" stroke="#524CF2" stroke-width="2.5" stroke-linecap="round"/>
</svg>
