<svg width="88" height="88" viewBox="0 0 88 88" fill="none" xmlns="http://www.w3.org/2000/svg">
<circle cx="44" cy="44" r="44" fill="white"/>
<path d="M52.1876 51.6989L53.2153 50.6707L50.8289 48.2558L49.8014 49.284L52.1876 51.6989ZM56.6665 50.24L60.977 52.5979L62.5934 49.6062L58.2828 47.2483L56.6665 50.24ZM61.8069 57.2841L58.6016 60.4908L60.9879 62.9056L64.1931 59.6989L61.8069 57.2841ZM56.6486 61.5233C53.3773 61.83 44.9137 61.5566 35.7501 52.3886L33.3638 54.8034C43.3636 64.8081 52.8811 65.2966 56.9627 64.9139L56.6486 61.5233ZM35.7501 52.3886C27.0153 43.6495 25.5684 36.2993 25.3883 33.1106L22.0094 33.3038C22.236 37.3172 24.0276 45.4628 33.3638 54.8034L35.7501 52.3886ZM38.8532 38.3579L39.5002 37.7104L37.114 35.2957L36.4669 35.9431L38.8532 38.3579ZM40.0153 29.4577L37.1703 25.6337L34.4611 27.6745L37.306 31.4985L40.0153 29.4577ZM27.6015 24.8014L24.0601 28.3445L26.4464 30.7593L29.9878 27.2162L27.6015 24.8014ZM37.66 37.1505C36.4669 35.9431 36.4653 35.9447 36.4637 35.9463C36.4631 35.9469 36.4615 35.9485 36.4604 35.9497C36.4582 35.9519 36.4559 35.9542 36.4537 35.9565C36.4491 35.9612 36.4443 35.9661 36.4395 35.9712C36.4297 35.9814 36.4194 35.9924 36.4085 36.0043C36.3867 36.0281 36.3628 36.0553 36.3372 36.086C36.2861 36.1474 36.2281 36.223 36.1672 36.3135C36.0451 36.4949 35.912 36.7347 35.7991 37.0362C35.5686 37.6516 35.4451 38.4628 35.6 39.4672C35.9029 41.4316 37.2474 44.0264 40.6915 47.4721L43.0778 45.0573C39.8547 41.8327 39.0869 39.8703 38.9443 38.9452C38.8764 38.5049 38.9468 38.2882 38.9662 38.2369C38.9779 38.2051 38.9836 38.2019 38.9691 38.2236C38.9619 38.2342 38.9499 38.2508 38.9312 38.2731C38.922 38.2843 38.9109 38.297 38.8981 38.3111C38.8915 38.3182 38.8847 38.3256 38.8771 38.3334C38.8735 38.3373 38.8696 38.3413 38.8656 38.3454C38.8635 38.3474 38.8615 38.3495 38.8595 38.3516C38.8586 38.3526 38.857 38.3542 38.8563 38.3547C38.8547 38.3563 38.8532 38.3579 37.66 37.1505ZM40.6915 47.4721C44.1368 50.919 46.7277 52.2605 48.6832 52.5625C49.6825 52.7166 50.4882 52.5936 51.0994 52.3645C51.399 52.2521 51.6377 52.1198 51.8182 51.9981C51.9085 51.9372 51.9838 51.8793 52.045 51.8283C52.0757 51.8028 52.1027 51.779 52.1264 51.7572C52.1384 51.7463 52.1494 51.7361 52.1596 51.7263C52.1648 51.7213 52.1695 51.7166 52.1743 51.712C52.1765 51.7098 52.1788 51.7075 52.181 51.7052C52.1822 51.7041 52.184 51.7025 52.1844 51.702C52.186 51.7004 52.1876 51.6989 50.9945 50.4913C49.8014 49.284 49.803 49.2824 49.8045 49.2808C49.805 49.2804 49.8066 49.2788 49.8077 49.2777C49.8097 49.2756 49.8118 49.2736 49.8138 49.2715C49.8181 49.2677 49.8219 49.2638 49.8257 49.26C49.8336 49.2525 49.8411 49.2456 49.8481 49.2391C49.8621 49.2264 49.8747 49.2152 49.886 49.2061C49.9081 49.1875 49.9246 49.1757 49.9347 49.1687C49.9557 49.1546 49.9514 49.161 49.918 49.1735C49.8627 49.1941 49.6414 49.2652 49.1965 49.1964C48.264 49.0527 46.2999 48.2808 43.0778 45.0573L40.6915 47.4721ZM37.1703 25.6337C34.8705 22.5426 30.3481 22.0535 27.6015 24.8014L29.9878 27.2162C31.1874 26.016 33.318 26.1382 34.4611 27.6745L37.1703 25.6337ZM25.3883 33.1106C25.3439 32.3248 25.702 31.5041 26.4464 30.7593L24.0601 28.3445C22.8478 29.5574 21.8947 31.2744 22.0094 33.3038L25.3883 33.1106ZM58.6016 60.4908C57.9816 61.1112 57.3169 61.4606 56.6486 61.5233L56.9627 64.9139C58.6201 64.7583 59.9782 63.9159 60.9879 62.9056L58.6016 60.4908ZM39.5002 37.7104C41.7215 35.4881 41.8867 31.9729 40.0153 29.4577L37.306 31.4985C38.2164 32.7221 38.0811 34.3282 37.114 35.2957L39.5002 37.7104ZM60.977 52.5979C62.8222 53.6072 63.1096 55.9805 61.8069 57.2841L64.1931 59.6989C67.2171 56.6734 66.2846 51.6251 62.5934 49.6062L60.977 52.5979ZM53.2153 50.6707C54.0817 49.8039 55.4763 49.5891 56.6665 50.24L58.2828 47.2483C55.838 45.9109 52.8038 46.2803 50.8289 48.2558L53.2153 50.6707Z" fill="#524CF2"/>
</svg>
