<svg width="41" height="41" viewBox="0 0 41 41" fill="none" xmlns="http://www.w3.org/2000/svg">
<rect opacity="0.39" width="41" height="41" rx="10" fill="#9B9DA9"/>
<path d="M12.3109 26V15.8182H16.1291C16.9113 15.8182 17.5675 15.964 18.0978 16.2557C18.6315 16.5473 19.0342 16.9484 19.3059 17.4588C19.581 17.9659 19.7186 18.5426 19.7186 19.1889C19.7186 19.8419 19.581 20.4219 19.3059 20.929C19.0308 21.4361 18.6248 21.8355 18.0879 22.1271C17.551 22.4155 16.8897 22.5597 16.1042 22.5597H13.5737V21.0433H15.8556C16.313 21.0433 16.6876 20.9638 16.9792 20.8047C17.2709 20.6456 17.4863 20.4268 17.6255 20.1484C17.7681 19.87 17.8393 19.5502 17.8393 19.1889C17.8393 18.8277 17.7681 18.5095 17.6255 18.2344C17.4863 17.9593 17.2692 17.7455 16.9743 17.593C16.6826 17.4373 16.3064 17.3594 15.8457 17.3594H14.1554V26H12.3109ZM29.6879 15.8182V26H28.0472L23.2496 19.0646H23.1651V26H21.3207V15.8182H22.9712L27.7638 22.7585H27.8533V15.8182H29.6879Z" fill="black"/>
</svg>
