<svg xmlns="http://www.w3.org/2000/svg" viewBox="118.784 749.568 536.576 503.808" version="1.1" style="max-height: 500px" width="536.576" height="503.808">
<path fill="#3827D8" d="m0 0h3v2h107l17 4 12 5 16 10 13 13 9 16 5 15 2 9 1 15v267l-1 18-1 2-1 16-4 18-8 16-7 10-7 7-13 8-12 5-5 2-16 3-16 1-5-1v2h-14l-2-1h-52-4l-214-1-22-3-16-5-12-7-10-9-9-9-6-10-5-12-5-26v-289l3-27 7-17 8-14 12-12 16-9 11-5 14-4 8-1 201-1z" transform="translate(434,771)"/>
<path fill="#FAFAFB" d="m0 0h12l17 1 15 4 16 8 12 9 10 9 12 17 7 12 4 11 4 13 3 14v36l-3 19-7 20-8 16-9 13 2 4 9 11 10 13 1 5-11 7-12 9-6 2-7-6-6-9-10-11-9 3-13 5-12 3h-34l-14-3-18-8-11-7-10-9-7-8-8-11-7-14-8-23-3-15v-32l1-14 8-27 8-17 8-12 9-10 9-8 15-10 14-6 14-3zm-2 39-16 5-11 6-9 10-9 16-5 15-3 18-1 16 3 20 4 14 5 12 7 11 7 6 9 6 9 4 16 2 11-1 11-3 3-4-11-13-9-12 1-5 8-7 15-11 3 1 6 8 7 8 5 8 4-2 4-9 5-16 2-26-2-23-7-20-7-11-9-11-9-6-15-5-5-1z" transform="translate(765,876)"/>
<path fill="#FAFAFB" d="m0 0h29l8 2 16 8 9 7 8 7 7 10 5 11 6 17 1 4v33l-3 2h-37l-8-1-4 2-5-2-35 1-4-1h-18l2 11 5 13 6 7 9 6 12 4h13l11-3 11-8 6-7 15-1h10l10 1 1 2-5 13-7 11-11 12-9 6-11 5-15 4h-30l-15-4-16-8-14-12-7-10-8-17-4-12-2-12v-12l3-27 8-24 5-9 15-13 10-8 11-5zm6 34-10 3-8 7-8 9-4 11v6l6 1h66l2-4-2-8-5-10-8-8-10-5-12-2z" transform="translate(1804,938)"/>
<path fill="#F8F8FB" d="m0 0h16l11 1 13 4 13 7 10 8 7 10 5 12 3 12v113l-2 4h-39l-2-5-1-12-9 9-14 8-7 3-10 2-22-2-12-4-11-6-10-10-5-12-3-14v-10l4-16 7-10 8-7 14-7 9-3 25-2 36-1 1-5v-9l-2-8-5-7-10-5-12-2-12 1-10 4-6 5-4 8-1 1h-20l-16-1 1-9 5-12 8-11 9-9 8-5 14-5 9-2zm20 100-28 2-10 3-8 7-2 5v10l4 8 8 5 9 2 17-1 11-4 9-6 5-10 1-14-1-7z" transform="translate(1135,938)"/>
<path fill="#FAFAFB" d="m0 0h10l11 1 14 6 11 9 4 5 7 15 4 14 1 17v36l-1 68h-41l-1-1v-67l-1-40-5-12-5-6-9-4-7-2h-9l-12 3-6 4-5 6-4 8-3 12 1 12-1 21 1 9-1 29v28l-40 1-2-2-2-14v-20l1-8v-15l1-21-1-25 1-19v-42l2-2h9l9 1 20-1 3 2v18l9-11 11-7 13-5z" transform="translate(1325,938)"/>
<path fill="#F9F9FB" d="m0 0h34l5 2 1 103 3 12 5 10 9 6 6 1h12l11-4 9-6 5-9 2-7 2-95v-10l1-1 17-1 24 1 1 65v64l-1 37h-40l-1-1-1-8v-14l1-3h-2l-1 5-7 9-9 7-14 7-16 3-9-1-13-2-12-5-8-6-8-10-5-11-2-6-2-11-1-16 1-9v-94z" transform="translate(902,941)"/>
<path fill="#F9F9FB" d="m0 0 12 1 7 1 22-1-1 10-16 46-9 24-15 44-15 42-1 1h-43l-3-5-9-23-10-32-8-21-13-37-10-28-5-16v-4h29l15 1 4 10 7 26 6 20 6 19 9 31 3 10 1 1 4-11 5-19 12-39 8-30 5-16z" transform="translate(1698,941)"/>
<path fill="#E9E8E9" d="m0 0 6 3 2 3-1 13-12 61-4 8-4 2-9-1-10-9-4-5-3 1-9 12-11 12-15 15-11 9-8 7-18 13-17 11-18 10-26 13-24 9-23 7-24 5-25 3h-25l-3-5v-17l3-2 26-1 32-5 25-7 26-10 22-11 20-12 17-12 16-13 12-11 12-12 9-11 12-16 3-5v-3l-16-12-3-4 1-5 4-4 36-12 26-8z" transform="translate(534,856)"/>
<path fill="#F9F9FB" d="m0 0 40 1 1 1-1 42h37l1 5-1 24-2 5h-34v84l3 7 1 3 5 2 8 1 17-1 2 4v27l-3 4-20 3h-9l-19-3-14-7-7-8-5-12-2-9v-97l-12 1h-11l-1-1v-32l23-1 1-5v-34z" transform="translate(1421,900)"/>
<path fill="#E9E8E9" d="m0 0h70v162h-71l-1-11v-65l1-85z" transform="translate(460 1e3)"/>
<path fill="#E9E8E9" d="m0 0h69v114h-69l-1-1v-112z" transform="translate(354,1050)"/>
<path fill="#FAF9FB" d="m0 0h43l1 8-1 42v35l-1 80h-41l-2-5v-159z" transform="translate(1520,944)"/>
<path fill="#E9E8E9" d="m0 0h72v81l-1 1h-71l-1-1v-80z" transform="translate(246,1082)"/>
<path fill="#FAFAFA" d="m0 0 6 3 2 3-1 13-6 30h-2l-1 4 1-14 2-10 2-7v-7l-3-7-4-1-18 6-7 2-16 5-16 4-7 3-3 3 1 5 10 8 2 3 1 8-3 10h-2l-1 5-3 3-2 4-8 9-2 3h-2l-2 4-10 11-8 7-9 7h-3v2l-10 8-6 4h-2v2l-6 3-23 13-15 8-8 4-17 6-21 7-4 1h-12l1-3 25-7 26-10 22-11 20-12 17-12 16-13 12-11 12-12 9-11 12-16 3-5v-3l-16-12-3-4 1-5 4-4 36-12 26-8z" transform="translate(534,856)"/>
<path fill="#FAFAFB" d="m0 0h7l10 3 8 7 3 7v13l-4 8-7 6-2 1h-20l-7-4-6-12-1-3v-9l4-8 7-6z" transform="translate(1537,875)"/>
<path fill="#F9F9F9" d="m0 0h2l-1 5-12 14-19 19-11 9-8 7-18 13-17 11-18 10-26 13-24 9-23 7h-7l3-2 13-5 10-4 34-13 11-7 8-4h2v-2l5-2h3v-2l8-4 5-2v-2l17-11h2v-2l13-8 7-6 5-3 2-3h2v-2h2l2-4 4-2 2-4 4-4h2v-2h2l2-4 7-8z" transform="translate(490,933)"/>
<path fill="#F9F9F9" d="m0 0 6 3 2 3-1 13-6 30h-2l-1 4 1-14 2-10 2-7v-7l-3-7-4-1-18 6-7 2-16 5-16 4-7 3-3 3 1 5 10 8 2 3-1 6-5-5-13-10-3-4 1-5 4-4 36-12 26-8z" transform="translate(534,856)"/>
<path fill="#7E73DE" d="m0 0h34l5 2v68h-1v-67h-40v5h-1v-6z" transform="translate(902,941)"/>
<path fill="#FDFDFD" d="m0 0 2 3 2 9-1 19-1 12-1 63h-1z" transform="translate(354,1057)"/>
<path fill="#968EE1" d="m0 0h9v1h-9zm-1 1h1v88l-2-1-1-25 1-19v-42z" transform="translate(1238,942)"/>
<path fill="#F9F9F9" d="m0 0 5 2 3 2v2h2v2l5 2 7-1 5-8h1v8l-3 5-4 2-9-1-10-9-2-3z" transform="translate(500,930)"/>
<path fill="#FBFBFB" d="m0 0h21v1l-15 1-7 2 1 10 1 3 5 3 15 1v1h-24l-2-4v-17z" transform="translate(243,1035)"/>
<path fill="#3D2CD8" d="m0 0h1v73h-1l-2-13v-20l1-8v-15z" transform="translate(1236,1034)"/>
<path fill="#FDFDFD" d="m0 0h8v49h-1l-2-21 2-22-12-4v-1z" transform="translate(414,1051)"/>
<path fill="#ABA4E3" d="m0 0h1v45l-2-1-1-25z" transform="translate(1237,986)"/>
<path fill="#A69FE2" d="m0 0h2l1 8-1 26h-2z" transform="translate(1561,944)"/>
<path fill="#C7C3EA" d="m0 0 2 1-19 19-3 5-2-1 8-11 9-9z" transform="translate(709,896)"/>
<path fill="#9289E0" d="m0 0h2l1 5-1 24h-2z" transform="translate(1496,944)"/>
<path fill="#E2E0E8" d="m0 0h12l10 1v1l-16 1h-16l-3-2z" transform="translate(1867,1060)"/>
<path fill="#F5F4F5" d="m0 0h1l-1 9-2 10h-2l-1 4 1-14z" transform="translate(537,886)"/>
<path fill="#AFA9E3" d="m0 0h1v6l-1 1h-34v-1l32-1z" transform="translate(1171 1e3)"/>
<path fill="#A19AE7" d="m0 0h2l-2 4-8 8-2-1 7-9z" transform="translate(1291,949)"/>
<path fill="#3E2DD8" d="m0 0 2 1-8 13-1-3 5-9z" transform="translate(1754,965)"/>
</svg>